<?xml version="1.0" standalone="no"?><!DOCTYPE svg PUBLIC "-//W3C//DTD SVG 1.1//EN" "http://www.w3.org/Graphics/SVG/1.1/DTD/svg11.dtd"><svg t="1614146232015" class="icon" viewBox="0 0 1194 1024" version="1.1" xmlns="http://www.w3.org/2000/svg" p-id="4086" xmlns:xlink="http://www.w3.org/1999/xlink" width="149.25" height="128"><defs><style type="text/css"></style></defs><path d="M231.978667 0.426667h-93.013334v380.928h93.013334V0.469333z m0 929.962666v93.013334H1161.813333v-93.013334H231.978667zM789.888 93.44h-185.941333v743.936h185.941333V93.44z m279.04 371.968h-186.026667v371.968h186.026667v-371.968z m-672 268.8c38.314667 41.216 66.304 103.168 66.304 103.168h47.701333V279.466667h-186.026666v145.664s52.010667 30.506667 52.010666 106.112c0 79.573333-51.968 110.08-51.968 110.08v42.453333s37.504 13.269333 71.978667 50.389333z" fill="#722ED1" p-id="4087"></path><path d="M235.733333 681.898667c-129.792 0-235.008 144.896-235.008 323.626666 0 5.973333 0.128 11.861333 0.384 17.792h469.333334a421.973333 421.973333 0 0 0 0.341333-17.792c0-178.730667-105.216-323.626667-235.050667-323.626666z m2.176-33.28c65.536 0 118.656-52.266667 118.656-116.693334 0-64.426667-53.12-116.650667-118.613333-116.650666-65.536 0-118.613333 52.224-118.613333 116.650666s53.077333 116.693333 118.613333 116.693334z" fill="#722ED1" p-id="4088"></path></svg>